<?xml version="1.0" standalone="no"?>
<!DOCTYPE svg PUBLIC "-//W3C//DTD SVG 20010904//EN"
 "http://www.w3.org/TR/2001/REC-SVG-20010904/DTD/svg10.dtd">
<svg version="1.0" xmlns="http://www.w3.org/2000/svg"
 width="1000.000000pt" height="1000.000000pt" viewBox="0 0 1000.000000 1000.000000"
 preserveAspectRatio="xMidYMid meet">
<metadata>
Created by potrace 1.11, written by Peter Selinger 2001-2013
</metadata>
<g transform="translate(0.000000,1000.000000) scale(0.100000,-0.100000)"
fill="#000000" stroke="none">
<path d="M4705 9614 c-1138 -87 -2134 -530 -2929 -1304 -408 -398 -736 -857
-958 -1343 -113 -248 -137 -305 -192 -467 -257 -747 -318 -1535 -180 -2319
201 -1145 839 -2184 1769 -2881 823 -617 1760 -930 2785 -930 1124 0 2158 384
3020 1120 222 190 504 491 691 740 351 468 635 1066 777 1640 163 656 182
1330 56 2000 -143 759 -494 1496 -1003 2105 -105 126 -375 399 -506 512 -723
625 -1569 995 -2535 1109 -128 15 -672 27 -795 18z m510 -3624 c111 -13 220
-48 350 -113 142 -71 207 -117 315 -226 108 -109 160 -183 230 -326 92 -190
110 -272 110 -503 0 -237 -23 -338 -121 -533 -62 -125 -128 -215 -231 -315
-103 -101 -174 -152 -293 -211 -185 -93 -314 -123 -535 -123 -228 0 -342 28
-549 135 -119 61 -170 99 -274 203 -105 103 -161 178 -222 297 -88 172 -119
282 -130 456 -15 235 23 420 130 628 68 132 131 216 239 318 97 92 158 135
282 197 225 113 428 146 699 116z m-1511 -1947 c41 -82 122 -188 218 -289 211
-220 453 -364 734 -435 167 -42 267 -52 444 -46 245 9 405 50 635 162 261 128
498 347 641 593 l37 62 1333 0 c940 0 1334 -3 1334 -11 0 -24 -54 -220 -91
-333 -144 -428 -378 -892 -611 -1208 -220 -298 -559 -643 -863 -878 -358 -277
-929 -561 -1400 -696 -536 -155 -1245 -184 -1884 -78 -189 31 -300 59 -496
125 -631 212 -1162 528 -1600 951 -432 416 -695 783 -934 1303 -111 243 -251
640 -277 788 l-6 37 1381 0 1381 0 24 -47z"/>
<path d="M4880 5601 c-326 -72 -567 -308 -641 -628 -18 -79 -21 -113 -16 -216
7 -146 23 -212 83 -332 83 -167 204 -290 369 -371 131 -64 224 -86 370 -86
229 0 417 77 578 236 254 248 319 643 160 961 -79 158 -238 310 -399 381 -155
68 -348 90 -504 55z m370 -151 c114 -38 180 -80 276 -175 105 -104 161 -201
189 -331 25 -110 17 -274 -17 -372 -132 -372 -547 -565 -905 -422 -159 64
-294 190 -368 345 -53 109 -65 166 -65 295 0 132 12 186 70 305 76 157 200
273 365 339 92 37 153 46 280 41 79 -2 128 -9 175 -25z"/>
</g>
</svg>
